<mxfile host="app.diagrams.net" modified="2021-06-23T08:15:00.829Z" agent="5.0 (Macintosh; Intel Mac OS X 10_15_7) AppleWebKit/537.36 (KHTML, like Gecko) Chrome/91.0.4472.114 Safari/537.36" etag="-gb9z21ATtv5cWJp4etQ" version="14.8.0" type="github" pages="4">
  <diagram id="PLJrKoEeHbKwswtLdXNB" name="likedList">
    <mxGraphModel dx="1426" dy="794" grid="1" gridSize="10" guides="1" tooltips="1" connect="1" arrows="1" fold="1" page="1" pageScale="1" pageWidth="1169" pageHeight="827" math="0" shadow="0">
      <root>
        <mxCell id="0" />
        <mxCell id="1" parent="0" />
        <mxCell id="fytdZEIQK4iOIxgotdnY-16" value="" style="whiteSpace=wrap;html=1;fillColor=#f8cecc;sketch=1;strokeColor=#b85450;" parent="1" vertex="1">
          <mxGeometry x="20" y="320" width="50" height="50" as="geometry" />
        </mxCell>
        <mxCell id="fytdZEIQK4iOIxgotdnY-19" value="" style="edgeStyle=orthogonalEdgeStyle;curved=1;orthogonalLoop=1;jettySize=auto;html=1;strokeColor=#ae4132;endArrow=none;endFill=0;fillColor=#fad9d5;sketch=1;" parent="1" source="fytdZEIQK4iOIxgotdnY-1" edge="1">
          <mxGeometry relative="1" as="geometry">
            <mxPoint x="45" y="345" as="targetPoint" />
          </mxGeometry>
        </mxCell>
        <mxCell id="fytdZEIQK4iOIxgotdnY-1" value="&lt;font face=&quot;Comic Sans MS&quot; style=&quot;font-size: 20px&quot;&gt;3&lt;/font&gt;" style="whiteSpace=wrap;html=1;fillColor=#fad9d5;strokeColor=#ae4132;sketch=1;" parent="1" vertex="1">
          <mxGeometry x="110" y="320" width="50" height="50" as="geometry" />
        </mxCell>
        <mxCell id="fytdZEIQK4iOIxgotdnY-2" value="" style="whiteSpace=wrap;html=1;fillColor=#fad9d5;strokeColor=#ae4132;sketch=1;" parent="1" vertex="1">
          <mxGeometry x="160" y="320" width="50" height="50" as="geometry" />
        </mxCell>
        <mxCell id="fytdZEIQK4iOIxgotdnY-3" value="&lt;font face=&quot;Comic Sans MS&quot;&gt;&lt;span style=&quot;font-size: 20px&quot;&gt;5&lt;/span&gt;&lt;/font&gt;" style="whiteSpace=wrap;html=1;fillColor=#fad9d5;strokeColor=#ae4132;sketch=1;" parent="1" vertex="1">
          <mxGeometry x="250" y="320" width="50" height="50" as="geometry" />
        </mxCell>
        <mxCell id="fytdZEIQK4iOIxgotdnY-4" value="" style="whiteSpace=wrap;html=1;fillColor=#fad9d5;strokeColor=#ae4132;sketch=1;" parent="1" vertex="1">
          <mxGeometry x="300" y="320" width="50" height="50" as="geometry" />
        </mxCell>
        <mxCell id="fytdZEIQK4iOIxgotdnY-5" value="&lt;font face=&quot;Comic Sans MS&quot;&gt;&lt;span style=&quot;font-size: 20px&quot;&gt;11&lt;/span&gt;&lt;/font&gt;" style="whiteSpace=wrap;html=1;fillColor=#fad9d5;strokeColor=#ae4132;sketch=1;" parent="1" vertex="1">
          <mxGeometry x="390" y="320" width="50" height="50" as="geometry" />
        </mxCell>
        <mxCell id="fytdZEIQK4iOIxgotdnY-6" value="" style="whiteSpace=wrap;html=1;fillColor=#fad9d5;strokeColor=#ae4132;sketch=1;" parent="1" vertex="1">
          <mxGeometry x="440" y="320" width="50" height="50" as="geometry" />
        </mxCell>
        <mxCell id="fytdZEIQK4iOIxgotdnY-7" value="&lt;font face=&quot;Comic Sans MS&quot;&gt;&lt;span style=&quot;font-size: 20px&quot;&gt;16&lt;/span&gt;&lt;/font&gt;" style="whiteSpace=wrap;html=1;fillColor=#fad9d5;strokeColor=#ae4132;sketch=1;" parent="1" vertex="1">
          <mxGeometry x="530" y="320" width="50" height="50" as="geometry" />
        </mxCell>
        <mxCell id="fytdZEIQK4iOIxgotdnY-8" value="" style="whiteSpace=wrap;html=1;fillColor=#fad9d5;strokeColor=#ae4132;sketch=1;" parent="1" vertex="1">
          <mxGeometry x="580" y="320" width="50" height="50" as="geometry" />
        </mxCell>
        <mxCell id="fytdZEIQK4iOIxgotdnY-9" value="&lt;span style=&quot;font-family: &amp;#34;comic sans ms&amp;#34; ; font-size: 20px&quot;&gt;31&lt;/span&gt;" style="whiteSpace=wrap;html=1;fillColor=#fad9d5;strokeColor=#ae4132;sketch=1;" parent="1" vertex="1">
          <mxGeometry x="670" y="320" width="50" height="50" as="geometry" />
        </mxCell>
        <mxCell id="fytdZEIQK4iOIxgotdnY-10" value="" style="whiteSpace=wrap;html=1;fillColor=#fad9d5;strokeColor=#ae4132;sketch=1;" parent="1" vertex="1">
          <mxGeometry x="720" y="320" width="50" height="50" as="geometry" />
        </mxCell>
        <mxCell id="fytdZEIQK4iOIxgotdnY-11" value="&lt;span style=&quot;font-family: &amp;#34;comic sans ms&amp;#34; ; font-size: 20px&quot;&gt;35&lt;/span&gt;" style="whiteSpace=wrap;html=1;fillColor=#fad9d5;strokeColor=#ae4132;sketch=1;" parent="1" vertex="1">
          <mxGeometry x="810" y="320" width="50" height="50" as="geometry" />
        </mxCell>
        <mxCell id="fytdZEIQK4iOIxgotdnY-12" value="" style="whiteSpace=wrap;html=1;fillColor=#fad9d5;strokeColor=#ae4132;sketch=1;" parent="1" vertex="1">
          <mxGeometry x="860" y="320" width="50" height="50" as="geometry" />
        </mxCell>
        <mxCell id="fytdZEIQK4iOIxgotdnY-13" value="&lt;span style=&quot;font-family: &amp;#34;comic sans ms&amp;#34; ; font-size: 20px&quot;&gt;43&lt;/span&gt;" style="whiteSpace=wrap;html=1;fillColor=#fad9d5;strokeColor=#ae4132;sketch=1;" parent="1" vertex="1">
          <mxGeometry x="950" y="320" width="50" height="50" as="geometry" />
        </mxCell>
        <mxCell id="fytdZEIQK4iOIxgotdnY-14" value="" style="whiteSpace=wrap;html=1;fillColor=#fad9d5;strokeColor=#ae4132;sketch=1;" parent="1" vertex="1">
          <mxGeometry x="1000" y="320" width="50" height="50" as="geometry" />
        </mxCell>
        <mxCell id="fytdZEIQK4iOIxgotdnY-15" value="&lt;font style=&quot;font-size: 17px&quot; face=&quot;Comic Sans MS&quot;&gt;null&lt;/font&gt;" style="whiteSpace=wrap;html=1;fillColor=#fad9d5;strokeColor=#ae4132;sketch=1;" parent="1" vertex="1">
          <mxGeometry x="1090" y="320" width="50" height="50" as="geometry" />
        </mxCell>
        <mxCell id="fytdZEIQK4iOIxgotdnY-17" value="" style="endArrow=classic;html=1;curved=1;fillColor=#fad9d5;strokeColor=#ae4132;sketch=1;" parent="1" source="fytdZEIQK4iOIxgotdnY-16" edge="1">
          <mxGeometry width="50" height="50" relative="1" as="geometry">
            <mxPoint x="50" y="410" as="sourcePoint" />
            <mxPoint x="110" y="345" as="targetPoint" />
          </mxGeometry>
        </mxCell>
        <mxCell id="fytdZEIQK4iOIxgotdnY-20" value="" style="endArrow=classic;html=1;curved=1;fillColor=#fad9d5;strokeColor=#ae4132;sketch=1;" parent="1" edge="1">
          <mxGeometry width="50" height="50" relative="1" as="geometry">
            <mxPoint x="190" y="344.5" as="sourcePoint" />
            <mxPoint x="250" y="344.5" as="targetPoint" />
          </mxGeometry>
        </mxCell>
        <mxCell id="fytdZEIQK4iOIxgotdnY-21" value="" style="endArrow=classic;html=1;curved=1;fillColor=#fad9d5;strokeColor=#ae4132;sketch=1;" parent="1" edge="1">
          <mxGeometry width="50" height="50" relative="1" as="geometry">
            <mxPoint x="330" y="344.5" as="sourcePoint" />
            <mxPoint x="390" y="344.5" as="targetPoint" />
          </mxGeometry>
        </mxCell>
        <mxCell id="fytdZEIQK4iOIxgotdnY-22" value="" style="endArrow=classic;html=1;curved=1;fillColor=#fad9d5;strokeColor=#ae4132;sketch=1;" parent="1" edge="1">
          <mxGeometry width="50" height="50" relative="1" as="geometry">
            <mxPoint x="470" y="344.5" as="sourcePoint" />
            <mxPoint x="530" y="344.5" as="targetPoint" />
          </mxGeometry>
        </mxCell>
        <mxCell id="fytdZEIQK4iOIxgotdnY-25" value="" style="endArrow=classic;html=1;curved=1;fillColor=#fad9d5;strokeColor=#ae4132;sketch=1;" parent="1" edge="1">
          <mxGeometry width="50" height="50" relative="1" as="geometry">
            <mxPoint x="610" y="344.5" as="sourcePoint" />
            <mxPoint x="670" y="344.5" as="targetPoint" />
          </mxGeometry>
        </mxCell>
        <mxCell id="fytdZEIQK4iOIxgotdnY-26" value="" style="endArrow=classic;html=1;curved=1;fillColor=#fad9d5;strokeColor=#ae4132;sketch=1;" parent="1" edge="1">
          <mxGeometry width="50" height="50" relative="1" as="geometry">
            <mxPoint x="750" y="344.5" as="sourcePoint" />
            <mxPoint x="810" y="344.5" as="targetPoint" />
          </mxGeometry>
        </mxCell>
        <mxCell id="fytdZEIQK4iOIxgotdnY-27" value="" style="endArrow=classic;html=1;curved=1;fillColor=#fad9d5;strokeColor=#ae4132;sketch=1;" parent="1" edge="1">
          <mxGeometry width="50" height="50" relative="1" as="geometry">
            <mxPoint x="890" y="344.5" as="sourcePoint" />
            <mxPoint x="950" y="344.5" as="targetPoint" />
          </mxGeometry>
        </mxCell>
        <mxCell id="fytdZEIQK4iOIxgotdnY-28" value="" style="endArrow=classic;html=1;curved=1;fillColor=#fad9d5;strokeColor=#ae4132;sketch=1;" parent="1" edge="1">
          <mxGeometry width="50" height="50" relative="1" as="geometry">
            <mxPoint x="1030" y="344.5" as="sourcePoint" />
            <mxPoint x="1090" y="344.5" as="targetPoint" />
          </mxGeometry>
        </mxCell>
      </root>
    </mxGraphModel>
  </diagram>
  <diagram name="skip-List1" id="dN-6P22B75GJJn-6NNPt">
    <mxGraphModel dx="1426" dy="794" grid="1" gridSize="10" guides="1" tooltips="1" connect="1" arrows="1" fold="1" page="1" pageScale="1" pageWidth="1169" pageHeight="827" math="0" shadow="0">
      <root>
        <mxCell id="AIqwUQI6agtbIvRE4mTJ-0" />
        <mxCell id="AIqwUQI6agtbIvRE4mTJ-1" parent="AIqwUQI6agtbIvRE4mTJ-0" />
        <mxCell id="AIqwUQI6agtbIvRE4mTJ-2" value="" style="whiteSpace=wrap;html=1;fillColor=#f8cecc;sketch=1;strokeColor=#b85450;" parent="AIqwUQI6agtbIvRE4mTJ-1" vertex="1">
          <mxGeometry x="20" y="320" width="50" height="50" as="geometry" />
        </mxCell>
        <mxCell id="AIqwUQI6agtbIvRE4mTJ-3" value="" style="edgeStyle=orthogonalEdgeStyle;curved=1;orthogonalLoop=1;jettySize=auto;html=1;strokeColor=#ae4132;endArrow=none;endFill=0;fillColor=#fad9d5;sketch=1;" parent="AIqwUQI6agtbIvRE4mTJ-1" source="AIqwUQI6agtbIvRE4mTJ-4" edge="1">
          <mxGeometry relative="1" as="geometry">
            <mxPoint x="45" y="345" as="targetPoint" />
          </mxGeometry>
        </mxCell>
        <mxCell id="AIqwUQI6agtbIvRE4mTJ-4" value="&lt;font face=&quot;Comic Sans MS&quot; style=&quot;font-size: 20px&quot;&gt;3&lt;/font&gt;" style="whiteSpace=wrap;html=1;fillColor=#fad9d5;strokeColor=#ae4132;sketch=1;" parent="AIqwUQI6agtbIvRE4mTJ-1" vertex="1">
          <mxGeometry x="110" y="320" width="50" height="50" as="geometry" />
        </mxCell>
        <mxCell id="AIqwUQI6agtbIvRE4mTJ-5" value="" style="whiteSpace=wrap;html=1;fillColor=#fad9d5;strokeColor=#ae4132;sketch=1;" parent="AIqwUQI6agtbIvRE4mTJ-1" vertex="1">
          <mxGeometry x="160" y="320" width="50" height="50" as="geometry" />
        </mxCell>
        <mxCell id="AIqwUQI6agtbIvRE4mTJ-6" value="&lt;font face=&quot;Comic Sans MS&quot;&gt;&lt;span style=&quot;font-size: 20px&quot;&gt;5&lt;/span&gt;&lt;/font&gt;" style="whiteSpace=wrap;html=1;fillColor=#fad9d5;strokeColor=#ae4132;sketch=1;" parent="AIqwUQI6agtbIvRE4mTJ-1" vertex="1">
          <mxGeometry x="250" y="320" width="50" height="50" as="geometry" />
        </mxCell>
        <mxCell id="AIqwUQI6agtbIvRE4mTJ-7" value="" style="whiteSpace=wrap;html=1;fillColor=#fad9d5;strokeColor=#ae4132;sketch=1;" parent="AIqwUQI6agtbIvRE4mTJ-1" vertex="1">
          <mxGeometry x="300" y="320" width="50" height="50" as="geometry" />
        </mxCell>
        <mxCell id="AIqwUQI6agtbIvRE4mTJ-8" value="&lt;font face=&quot;Comic Sans MS&quot;&gt;&lt;span style=&quot;font-size: 20px&quot;&gt;11&lt;/span&gt;&lt;/font&gt;" style="whiteSpace=wrap;html=1;fillColor=#fad9d5;strokeColor=#ae4132;sketch=1;" parent="AIqwUQI6agtbIvRE4mTJ-1" vertex="1">
          <mxGeometry x="390" y="320" width="50" height="50" as="geometry" />
        </mxCell>
        <mxCell id="AIqwUQI6agtbIvRE4mTJ-9" value="" style="whiteSpace=wrap;html=1;fillColor=#fad9d5;strokeColor=#ae4132;sketch=1;" parent="AIqwUQI6agtbIvRE4mTJ-1" vertex="1">
          <mxGeometry x="440" y="320" width="50" height="50" as="geometry" />
        </mxCell>
        <mxCell id="AIqwUQI6agtbIvRE4mTJ-10" value="&lt;font face=&quot;Comic Sans MS&quot;&gt;&lt;span style=&quot;font-size: 20px&quot;&gt;16&lt;/span&gt;&lt;/font&gt;" style="whiteSpace=wrap;html=1;fillColor=#fad9d5;strokeColor=#ae4132;sketch=1;" parent="AIqwUQI6agtbIvRE4mTJ-1" vertex="1">
          <mxGeometry x="530" y="320" width="50" height="50" as="geometry" />
        </mxCell>
        <mxCell id="AIqwUQI6agtbIvRE4mTJ-11" value="" style="whiteSpace=wrap;html=1;fillColor=#fad9d5;strokeColor=#ae4132;sketch=1;" parent="AIqwUQI6agtbIvRE4mTJ-1" vertex="1">
          <mxGeometry x="580" y="320" width="50" height="50" as="geometry" />
        </mxCell>
        <mxCell id="AIqwUQI6agtbIvRE4mTJ-12" value="&lt;span style=&quot;font-family: &amp;#34;comic sans ms&amp;#34; ; font-size: 20px&quot;&gt;31&lt;/span&gt;" style="whiteSpace=wrap;html=1;fillColor=#fad9d5;strokeColor=#ae4132;sketch=1;" parent="AIqwUQI6agtbIvRE4mTJ-1" vertex="1">
          <mxGeometry x="670" y="320" width="50" height="50" as="geometry" />
        </mxCell>
        <mxCell id="AIqwUQI6agtbIvRE4mTJ-13" value="" style="whiteSpace=wrap;html=1;fillColor=#fad9d5;strokeColor=#ae4132;sketch=1;" parent="AIqwUQI6agtbIvRE4mTJ-1" vertex="1">
          <mxGeometry x="720" y="320" width="50" height="50" as="geometry" />
        </mxCell>
        <mxCell id="AIqwUQI6agtbIvRE4mTJ-14" value="&lt;span style=&quot;font-family: &amp;#34;comic sans ms&amp;#34; ; font-size: 20px&quot;&gt;35&lt;/span&gt;" style="whiteSpace=wrap;html=1;fillColor=#fad9d5;strokeColor=#ae4132;sketch=1;" parent="AIqwUQI6agtbIvRE4mTJ-1" vertex="1">
          <mxGeometry x="810" y="320" width="50" height="50" as="geometry" />
        </mxCell>
        <mxCell id="AIqwUQI6agtbIvRE4mTJ-15" value="" style="whiteSpace=wrap;html=1;fillColor=#fad9d5;strokeColor=#ae4132;sketch=1;" parent="AIqwUQI6agtbIvRE4mTJ-1" vertex="1">
          <mxGeometry x="860" y="320" width="50" height="50" as="geometry" />
        </mxCell>
        <mxCell id="AIqwUQI6agtbIvRE4mTJ-16" value="&lt;span style=&quot;font-family: &amp;#34;comic sans ms&amp;#34; ; font-size: 20px&quot;&gt;43&lt;/span&gt;" style="whiteSpace=wrap;html=1;fillColor=#fad9d5;strokeColor=#ae4132;sketch=1;" parent="AIqwUQI6agtbIvRE4mTJ-1" vertex="1">
          <mxGeometry x="950" y="320" width="50" height="50" as="geometry" />
        </mxCell>
        <mxCell id="AIqwUQI6agtbIvRE4mTJ-17" value="" style="whiteSpace=wrap;html=1;fillColor=#fad9d5;strokeColor=#ae4132;sketch=1;" parent="AIqwUQI6agtbIvRE4mTJ-1" vertex="1">
          <mxGeometry x="1000" y="320" width="50" height="50" as="geometry" />
        </mxCell>
        <mxCell id="AIqwUQI6agtbIvRE4mTJ-18" value="&lt;font style=&quot;font-size: 17px&quot; face=&quot;Comic Sans MS&quot;&gt;null&lt;/font&gt;" style="whiteSpace=wrap;html=1;fillColor=#fad9d5;strokeColor=#ae4132;sketch=1;" parent="AIqwUQI6agtbIvRE4mTJ-1" vertex="1">
          <mxGeometry x="1090" y="320" width="50" height="50" as="geometry" />
        </mxCell>
        <mxCell id="AIqwUQI6agtbIvRE4mTJ-19" value="" style="endArrow=classic;html=1;curved=1;fillColor=#fad9d5;strokeColor=#ae4132;sketch=1;" parent="AIqwUQI6agtbIvRE4mTJ-1" source="AIqwUQI6agtbIvRE4mTJ-2" edge="1">
          <mxGeometry width="50" height="50" relative="1" as="geometry">
            <mxPoint x="50" y="410" as="sourcePoint" />
            <mxPoint x="110" y="345" as="targetPoint" />
          </mxGeometry>
        </mxCell>
        <mxCell id="AIqwUQI6agtbIvRE4mTJ-20" value="" style="endArrow=classic;html=1;curved=1;fillColor=#fad9d5;strokeColor=#ae4132;sketch=1;" parent="AIqwUQI6agtbIvRE4mTJ-1" edge="1">
          <mxGeometry width="50" height="50" relative="1" as="geometry">
            <mxPoint x="190" y="344.5" as="sourcePoint" />
            <mxPoint x="250" y="344.5" as="targetPoint" />
          </mxGeometry>
        </mxCell>
        <mxCell id="AIqwUQI6agtbIvRE4mTJ-21" value="" style="endArrow=classic;html=1;curved=1;fillColor=#fad9d5;strokeColor=#ae4132;sketch=1;" parent="AIqwUQI6agtbIvRE4mTJ-1" edge="1">
          <mxGeometry width="50" height="50" relative="1" as="geometry">
            <mxPoint x="330" y="344.5" as="sourcePoint" />
            <mxPoint x="390" y="344.5" as="targetPoint" />
          </mxGeometry>
        </mxCell>
        <mxCell id="AIqwUQI6agtbIvRE4mTJ-22" value="" style="endArrow=classic;html=1;curved=1;fillColor=#1ba1e2;strokeColor=#006EAF;sketch=1;" parent="AIqwUQI6agtbIvRE4mTJ-1" edge="1">
          <mxGeometry width="50" height="50" relative="1" as="geometry">
            <mxPoint x="470" y="344.5" as="sourcePoint" />
            <mxPoint x="530" y="344.5" as="targetPoint" />
          </mxGeometry>
        </mxCell>
        <mxCell id="AIqwUQI6agtbIvRE4mTJ-23" value="" style="endArrow=classic;html=1;curved=1;fillColor=#fad9d5;strokeColor=#ae4132;sketch=1;" parent="AIqwUQI6agtbIvRE4mTJ-1" edge="1">
          <mxGeometry width="50" height="50" relative="1" as="geometry">
            <mxPoint x="610" y="344.5" as="sourcePoint" />
            <mxPoint x="670" y="344.5" as="targetPoint" />
          </mxGeometry>
        </mxCell>
        <mxCell id="AIqwUQI6agtbIvRE4mTJ-24" value="" style="endArrow=classic;html=1;curved=1;fillColor=#fad9d5;strokeColor=#ae4132;sketch=1;" parent="AIqwUQI6agtbIvRE4mTJ-1" edge="1">
          <mxGeometry width="50" height="50" relative="1" as="geometry">
            <mxPoint x="750" y="344.5" as="sourcePoint" />
            <mxPoint x="810" y="344.5" as="targetPoint" />
          </mxGeometry>
        </mxCell>
        <mxCell id="AIqwUQI6agtbIvRE4mTJ-25" value="" style="endArrow=classic;html=1;curved=1;fillColor=#fad9d5;strokeColor=#ae4132;sketch=1;" parent="AIqwUQI6agtbIvRE4mTJ-1" edge="1">
          <mxGeometry width="50" height="50" relative="1" as="geometry">
            <mxPoint x="890" y="344.5" as="sourcePoint" />
            <mxPoint x="950" y="344.5" as="targetPoint" />
          </mxGeometry>
        </mxCell>
        <mxCell id="AIqwUQI6agtbIvRE4mTJ-26" value="" style="endArrow=classic;html=1;curved=1;fillColor=#fad9d5;strokeColor=#ae4132;sketch=1;" parent="AIqwUQI6agtbIvRE4mTJ-1" edge="1">
          <mxGeometry width="50" height="50" relative="1" as="geometry">
            <mxPoint x="1030" y="344.5" as="sourcePoint" />
            <mxPoint x="1090" y="344.5" as="targetPoint" />
          </mxGeometry>
        </mxCell>
        <mxCell id="4Abd8G-48YXwSchnOYsk-13" style="edgeStyle=orthogonalEdgeStyle;curved=1;sketch=1;orthogonalLoop=1;jettySize=auto;html=1;exitX=0.5;exitY=1;exitDx=0;exitDy=0;entryX=0.5;entryY=0;entryDx=0;entryDy=0;endArrow=classic;endFill=1;strokeColor=#000000;" parent="AIqwUQI6agtbIvRE4mTJ-1" source="4Abd8G-48YXwSchnOYsk-0" target="AIqwUQI6agtbIvRE4mTJ-4" edge="1">
          <mxGeometry relative="1" as="geometry" />
        </mxCell>
        <mxCell id="4Abd8G-48YXwSchnOYsk-0" value="&lt;font face=&quot;Comic Sans MS&quot; style=&quot;font-size: 20px&quot;&gt;3&lt;/font&gt;" style="whiteSpace=wrap;html=1;fillColor=#d5e8d4;strokeColor=#82b366;sketch=1;" parent="AIqwUQI6agtbIvRE4mTJ-1" vertex="1">
          <mxGeometry x="110" y="200" width="50" height="50" as="geometry" />
        </mxCell>
        <mxCell id="4Abd8G-48YXwSchnOYsk-1" value="" style="whiteSpace=wrap;html=1;fillColor=#d5e8d4;strokeColor=#82b366;sketch=1;" parent="AIqwUQI6agtbIvRE4mTJ-1" vertex="1">
          <mxGeometry x="160" y="200" width="50" height="50" as="geometry" />
        </mxCell>
        <mxCell id="4Abd8G-48YXwSchnOYsk-14" style="edgeStyle=orthogonalEdgeStyle;curved=1;sketch=1;orthogonalLoop=1;jettySize=auto;html=1;exitX=0.5;exitY=1;exitDx=0;exitDy=0;entryX=0.5;entryY=0;entryDx=0;entryDy=0;endArrow=classic;endFill=1;strokeColor=#006EAF;fillColor=#1ba1e2;" parent="AIqwUQI6agtbIvRE4mTJ-1" source="4Abd8G-48YXwSchnOYsk-2" target="AIqwUQI6agtbIvRE4mTJ-8" edge="1">
          <mxGeometry relative="1" as="geometry" />
        </mxCell>
        <mxCell id="4Abd8G-48YXwSchnOYsk-2" value="&lt;font face=&quot;Comic Sans MS&quot; style=&quot;font-size: 20px&quot;&gt;11&lt;/font&gt;" style="whiteSpace=wrap;html=1;fillColor=#d5e8d4;strokeColor=#82b366;sketch=1;" parent="AIqwUQI6agtbIvRE4mTJ-1" vertex="1">
          <mxGeometry x="390" y="200" width="50" height="50" as="geometry" />
        </mxCell>
        <mxCell id="4Abd8G-48YXwSchnOYsk-3" value="" style="whiteSpace=wrap;html=1;fillColor=#d5e8d4;strokeColor=#82b366;sketch=1;" parent="AIqwUQI6agtbIvRE4mTJ-1" vertex="1">
          <mxGeometry x="440" y="200" width="50" height="50" as="geometry" />
        </mxCell>
        <mxCell id="4Abd8G-48YXwSchnOYsk-15" style="edgeStyle=orthogonalEdgeStyle;curved=1;sketch=1;orthogonalLoop=1;jettySize=auto;html=1;exitX=0.5;exitY=1;exitDx=0;exitDy=0;entryX=0.5;entryY=0;entryDx=0;entryDy=0;endArrow=classic;endFill=1;strokeColor=#000000;" parent="AIqwUQI6agtbIvRE4mTJ-1" source="4Abd8G-48YXwSchnOYsk-4" target="AIqwUQI6agtbIvRE4mTJ-12" edge="1">
          <mxGeometry relative="1" as="geometry" />
        </mxCell>
        <mxCell id="4Abd8G-48YXwSchnOYsk-4" value="&lt;font face=&quot;Comic Sans MS&quot; style=&quot;font-size: 20px&quot;&gt;31&lt;/font&gt;" style="whiteSpace=wrap;html=1;fillColor=#d5e8d4;strokeColor=#82b366;sketch=1;" parent="AIqwUQI6agtbIvRE4mTJ-1" vertex="1">
          <mxGeometry x="670" y="200" width="50" height="50" as="geometry" />
        </mxCell>
        <mxCell id="4Abd8G-48YXwSchnOYsk-5" value="" style="whiteSpace=wrap;html=1;fillColor=#d5e8d4;strokeColor=#82b366;sketch=1;" parent="AIqwUQI6agtbIvRE4mTJ-1" vertex="1">
          <mxGeometry x="720" y="200" width="50" height="50" as="geometry" />
        </mxCell>
        <mxCell id="4Abd8G-48YXwSchnOYsk-16" style="edgeStyle=orthogonalEdgeStyle;curved=1;sketch=1;orthogonalLoop=1;jettySize=auto;html=1;exitX=0.5;exitY=1;exitDx=0;exitDy=0;entryX=0.5;entryY=0;entryDx=0;entryDy=0;endArrow=classic;endFill=1;strokeColor=#000000;" parent="AIqwUQI6agtbIvRE4mTJ-1" source="4Abd8G-48YXwSchnOYsk-6" target="AIqwUQI6agtbIvRE4mTJ-16" edge="1">
          <mxGeometry relative="1" as="geometry" />
        </mxCell>
        <mxCell id="4Abd8G-48YXwSchnOYsk-6" value="&lt;font face=&quot;Comic Sans MS&quot; style=&quot;font-size: 20px&quot;&gt;43&lt;/font&gt;" style="whiteSpace=wrap;html=1;fillColor=#d5e8d4;strokeColor=#82b366;sketch=1;" parent="AIqwUQI6agtbIvRE4mTJ-1" vertex="1">
          <mxGeometry x="950" y="200" width="50" height="50" as="geometry" />
        </mxCell>
        <mxCell id="4Abd8G-48YXwSchnOYsk-7" value="" style="whiteSpace=wrap;html=1;fillColor=#d5e8d4;strokeColor=#82b366;sketch=1;" parent="AIqwUQI6agtbIvRE4mTJ-1" vertex="1">
          <mxGeometry x="1000" y="200" width="50" height="50" as="geometry" />
        </mxCell>
        <mxCell id="4Abd8G-48YXwSchnOYsk-10" value="" style="endArrow=classic;html=1;curved=1;fillColor=#1ba1e2;strokeColor=#006EAF;sketch=1;entryX=0;entryY=0.5;entryDx=0;entryDy=0;dashed=1;" parent="AIqwUQI6agtbIvRE4mTJ-1" target="4Abd8G-48YXwSchnOYsk-4" edge="1">
          <mxGeometry width="50" height="50" relative="1" as="geometry">
            <mxPoint x="465" y="222.80975609756098" as="sourcePoint" />
            <mxPoint x="645" y="227.2" as="targetPoint" />
          </mxGeometry>
        </mxCell>
        <mxCell id="4Abd8G-48YXwSchnOYsk-11" value="" style="endArrow=classic;html=1;curved=1;fillColor=#1ba1e2;strokeColor=#006EAF;sketch=1;entryX=0;entryY=0.5;entryDx=0;entryDy=0;" parent="AIqwUQI6agtbIvRE4mTJ-1" edge="1">
          <mxGeometry width="50" height="50" relative="1" as="geometry">
            <mxPoint x="185" y="223.90975609756092" as="sourcePoint" />
            <mxPoint x="390" y="226.1" as="targetPoint" />
          </mxGeometry>
        </mxCell>
        <mxCell id="4Abd8G-48YXwSchnOYsk-12" value="" style="endArrow=classic;html=1;curved=1;fillColor=#d5e8d4;strokeColor=#82b366;sketch=1;entryX=0;entryY=0.5;entryDx=0;entryDy=0;" parent="AIqwUQI6agtbIvRE4mTJ-1" edge="1">
          <mxGeometry width="50" height="50" relative="1" as="geometry">
            <mxPoint x="745" y="223.90975609756092" as="sourcePoint" />
            <mxPoint x="950" y="226.1" as="targetPoint" />
          </mxGeometry>
        </mxCell>
      </root>
    </mxGraphModel>
  </diagram>
  <diagram name="skip-list" id="-f3J9ydbrXVaf7Ty2l9x">
    <mxGraphModel dx="2595" dy="737" grid="1" gridSize="10" guides="1" tooltips="1" connect="1" arrows="1" fold="1" page="1" pageScale="1" pageWidth="1169" pageHeight="827" math="0" shadow="0">
      <root>
        <mxCell id="oBRwna4pSDsS-81vIEba-0" />
        <mxCell id="oBRwna4pSDsS-81vIEba-1" parent="oBRwna4pSDsS-81vIEba-0" />
        <mxCell id="bUINL3HVLEJyD1RLzUbW-24" value="&lt;font style=&quot;font-size: 35px&quot; face=&quot;Comic Sans MS&quot;&gt;原始链表&lt;/font&gt;" style="text;html=1;align=center;verticalAlign=middle;whiteSpace=wrap;sketch=1;rounded=1;gradientColor=#b3b3b3;fillColor=#f5f5f5;strokeColor=#666666;" parent="oBRwna4pSDsS-81vIEba-1" vertex="1">
          <mxGeometry x="-500" y="590" width="147.5" height="40" as="geometry" />
        </mxCell>
        <mxCell id="bUINL3HVLEJyD1RLzUbW-25" value="&lt;font face=&quot;Comic Sans MS&quot; style=&quot;font-size: 35px&quot;&gt;一级索引&lt;/font&gt;" style="text;html=1;align=center;verticalAlign=middle;whiteSpace=wrap;sketch=1;rounded=1;gradientColor=#b3b3b3;fillColor=#f5f5f5;strokeColor=#666666;" parent="oBRwna4pSDsS-81vIEba-1" vertex="1">
          <mxGeometry x="-495" y="479.5" width="145" height="41" as="geometry" />
        </mxCell>
        <mxCell id="bUINL3HVLEJyD1RLzUbW-26" value="&lt;font style=&quot;font-size: 35px&quot; face=&quot;Comic Sans MS&quot;&gt;二级索引&lt;/font&gt;" style="text;html=1;align=center;verticalAlign=middle;whiteSpace=wrap;sketch=1;rounded=1;gradientColor=#b3b3b3;fillColor=#f5f5f5;strokeColor=#666666;" parent="oBRwna4pSDsS-81vIEba-1" vertex="1">
          <mxGeometry x="-502.5" y="374" width="160" height="40" as="geometry" />
        </mxCell>
        <mxCell id="bUINL3HVLEJyD1RLzUbW-27" value="&lt;font style=&quot;font-size: 35px&quot; face=&quot;Comic Sans MS&quot;&gt;三级索引&lt;/font&gt;" style="text;html=1;align=center;verticalAlign=middle;whiteSpace=wrap;sketch=1;rounded=1;gradientColor=#b3b3b3;fillColor=#f5f5f5;strokeColor=#666666;" parent="oBRwna4pSDsS-81vIEba-1" vertex="1">
          <mxGeometry x="-500" y="280" width="150" height="40" as="geometry" />
        </mxCell>
        <mxCell id="bUINL3HVLEJyD1RLzUbW-28" value="&lt;font style=&quot;font-size: 35px&quot; face=&quot;Comic Sans MS&quot;&gt;四级索引&lt;/font&gt;" style="text;html=1;align=center;verticalAlign=middle;whiteSpace=wrap;sketch=1;rounded=1;gradientColor=#b3b3b3;fillColor=#f5f5f5;strokeColor=#666666;" parent="oBRwna4pSDsS-81vIEba-1" vertex="1">
          <mxGeometry x="-502.5" y="170" width="150" height="40" as="geometry" />
        </mxCell>
        <mxCell id="bUINL3HVLEJyD1RLzUbW-33" style="orthogonalLoop=1;jettySize=auto;html=1;strokeColor=#006658;fontColor=#5C5C5C;sketch=1;strokeWidth=2;" parent="oBRwna4pSDsS-81vIEba-1" source="bUINL3HVLEJyD1RLzUbW-30" edge="1">
          <mxGeometry relative="1" as="geometry">
            <mxPoint x="1190" y="670" as="sourcePoint" />
            <mxPoint x="1220" y="630" as="targetPoint" />
            <Array as="points">
              <mxPoint x="1210" y="650" />
            </Array>
          </mxGeometry>
        </mxCell>
        <mxCell id="bUINL3HVLEJyD1RLzUbW-30" value="&lt;font face=&quot;Comic Sans MS&quot; style=&quot;font-size: 35px&quot;&gt;搜索目标：99&lt;/font&gt;" style="text;html=1;align=center;verticalAlign=middle;whiteSpace=wrap;sketch=1;rounded=1;gradientColor=#b3b3b3;fillColor=#f5f5f5;strokeColor=#666666;" parent="oBRwna4pSDsS-81vIEba-1" vertex="1">
          <mxGeometry x="1030" y="690" width="220" height="70" as="geometry" />
        </mxCell>
        <mxCell id="hpWwAnvsBjFf9aS-UhIp-2" value="" style="ellipse;whiteSpace=wrap;html=1;aspect=fixed;fillColor=#ffcd28;sketch=1;rounded=1;strokeColor=#d79b00;gradientColor=#ffa500;" vertex="1" parent="oBRwna4pSDsS-81vIEba-1">
          <mxGeometry x="-330" y="600" width="20" height="20" as="geometry" />
        </mxCell>
        <mxCell id="hpWwAnvsBjFf9aS-UhIp-3" value="" style="ellipse;whiteSpace=wrap;html=1;aspect=fixed;fillColor=#ffcd28;sketch=1;rounded=1;strokeColor=#d79b00;gradientColor=#ffa500;" vertex="1" parent="oBRwna4pSDsS-81vIEba-1">
          <mxGeometry x="-290" y="600" width="20" height="20" as="geometry" />
        </mxCell>
        <mxCell id="hpWwAnvsBjFf9aS-UhIp-4" value="" style="ellipse;whiteSpace=wrap;html=1;aspect=fixed;fillColor=#ffcd28;sketch=1;rounded=1;strokeColor=#d79b00;gradientColor=#ffa500;" vertex="1" parent="oBRwna4pSDsS-81vIEba-1">
          <mxGeometry x="-250" y="600" width="20" height="20" as="geometry" />
        </mxCell>
        <mxCell id="hpWwAnvsBjFf9aS-UhIp-5" value="" style="ellipse;whiteSpace=wrap;html=1;aspect=fixed;fillColor=#ffcd28;sketch=1;rounded=1;strokeColor=#d79b00;gradientColor=#ffa500;" vertex="1" parent="oBRwna4pSDsS-81vIEba-1">
          <mxGeometry x="-210" y="600" width="20" height="20" as="geometry" />
        </mxCell>
        <mxCell id="hpWwAnvsBjFf9aS-UhIp-6" value="" style="ellipse;whiteSpace=wrap;html=1;aspect=fixed;fillColor=#ffcd28;sketch=1;rounded=1;strokeColor=#d79b00;gradientColor=#ffa500;" vertex="1" parent="oBRwna4pSDsS-81vIEba-1">
          <mxGeometry x="-164" y="600" width="20" height="20" as="geometry" />
        </mxCell>
        <mxCell id="hpWwAnvsBjFf9aS-UhIp-7" value="" style="ellipse;whiteSpace=wrap;html=1;aspect=fixed;fillColor=#ffcd28;sketch=1;rounded=1;strokeColor=#d79b00;gradientColor=#ffa500;" vertex="1" parent="oBRwna4pSDsS-81vIEba-1">
          <mxGeometry x="-120" y="600" width="20" height="20" as="geometry" />
        </mxCell>
        <mxCell id="hpWwAnvsBjFf9aS-UhIp-11" value="" style="ellipse;whiteSpace=wrap;html=1;aspect=fixed;fillColor=#ffcd28;sketch=1;rounded=1;strokeColor=#d79b00;gradientColor=#ffa500;" vertex="1" parent="oBRwna4pSDsS-81vIEba-1">
          <mxGeometry x="-80" y="600" width="20" height="20" as="geometry" />
        </mxCell>
        <mxCell id="hpWwAnvsBjFf9aS-UhIp-12" value="" style="ellipse;whiteSpace=wrap;html=1;aspect=fixed;fillColor=#ffcd28;sketch=1;rounded=1;strokeColor=#d79b00;gradientColor=#ffa500;" vertex="1" parent="oBRwna4pSDsS-81vIEba-1">
          <mxGeometry x="-40" y="600" width="20" height="20" as="geometry" />
        </mxCell>
        <mxCell id="hpWwAnvsBjFf9aS-UhIp-13" value="" style="ellipse;whiteSpace=wrap;html=1;aspect=fixed;fillColor=#ffcd28;sketch=1;rounded=1;strokeColor=#d79b00;gradientColor=#ffa500;" vertex="1" parent="oBRwna4pSDsS-81vIEba-1">
          <mxGeometry y="600" width="20" height="20" as="geometry" />
        </mxCell>
        <mxCell id="hpWwAnvsBjFf9aS-UhIp-14" value="" style="ellipse;whiteSpace=wrap;html=1;aspect=fixed;fillColor=#ffcd28;sketch=1;rounded=1;strokeColor=#d79b00;gradientColor=#ffa500;" vertex="1" parent="oBRwna4pSDsS-81vIEba-1">
          <mxGeometry x="40" y="600" width="20" height="20" as="geometry" />
        </mxCell>
        <mxCell id="hpWwAnvsBjFf9aS-UhIp-17" value="" style="ellipse;whiteSpace=wrap;html=1;aspect=fixed;fillColor=#ffcd28;sketch=1;rounded=1;strokeColor=#d79b00;gradientColor=#ffa500;" vertex="1" parent="oBRwna4pSDsS-81vIEba-1">
          <mxGeometry x="86" y="600" width="20" height="20" as="geometry" />
        </mxCell>
        <mxCell id="hpWwAnvsBjFf9aS-UhIp-18" value="" style="ellipse;whiteSpace=wrap;html=1;aspect=fixed;fillColor=#ffcd28;sketch=1;rounded=1;strokeColor=#d79b00;gradientColor=#ffa500;" vertex="1" parent="oBRwna4pSDsS-81vIEba-1">
          <mxGeometry x="130" y="600" width="20" height="20" as="geometry" />
        </mxCell>
        <mxCell id="hpWwAnvsBjFf9aS-UhIp-19" value="" style="ellipse;whiteSpace=wrap;html=1;aspect=fixed;fillColor=#ffcd28;sketch=1;rounded=1;strokeColor=#d79b00;gradientColor=#ffa500;" vertex="1" parent="oBRwna4pSDsS-81vIEba-1">
          <mxGeometry x="170" y="600" width="20" height="20" as="geometry" />
        </mxCell>
        <mxCell id="hpWwAnvsBjFf9aS-UhIp-20" value="" style="ellipse;whiteSpace=wrap;html=1;aspect=fixed;fillColor=#ffcd28;sketch=1;rounded=1;strokeColor=#d79b00;gradientColor=#ffa500;" vertex="1" parent="oBRwna4pSDsS-81vIEba-1">
          <mxGeometry x="210" y="600" width="20" height="20" as="geometry" />
        </mxCell>
        <mxCell id="hpWwAnvsBjFf9aS-UhIp-21" value="" style="ellipse;whiteSpace=wrap;html=1;aspect=fixed;fillColor=#ffcd28;sketch=1;rounded=1;strokeColor=#d79b00;gradientColor=#ffa500;" vertex="1" parent="oBRwna4pSDsS-81vIEba-1">
          <mxGeometry x="250" y="600" width="20" height="20" as="geometry" />
        </mxCell>
        <mxCell id="hpWwAnvsBjFf9aS-UhIp-22" value="" style="ellipse;whiteSpace=wrap;html=1;aspect=fixed;fillColor=#ffcd28;sketch=1;rounded=1;strokeColor=#d79b00;gradientColor=#ffa500;" vertex="1" parent="oBRwna4pSDsS-81vIEba-1">
          <mxGeometry x="290" y="600" width="20" height="20" as="geometry" />
        </mxCell>
        <mxCell id="hpWwAnvsBjFf9aS-UhIp-25" value="" style="ellipse;whiteSpace=wrap;html=1;aspect=fixed;fillColor=#ffcd28;sketch=1;rounded=1;strokeColor=#d79b00;gradientColor=#ffa500;" vertex="1" parent="oBRwna4pSDsS-81vIEba-1">
          <mxGeometry x="336" y="600" width="20" height="20" as="geometry" />
        </mxCell>
        <mxCell id="hpWwAnvsBjFf9aS-UhIp-26" value="" style="ellipse;whiteSpace=wrap;html=1;aspect=fixed;fillColor=#ffcd28;sketch=1;rounded=1;strokeColor=#d79b00;gradientColor=#ffa500;" vertex="1" parent="oBRwna4pSDsS-81vIEba-1">
          <mxGeometry x="380" y="600" width="20" height="20" as="geometry" />
        </mxCell>
        <mxCell id="hpWwAnvsBjFf9aS-UhIp-27" value="" style="ellipse;whiteSpace=wrap;html=1;aspect=fixed;fillColor=#ffcd28;sketch=1;rounded=1;strokeColor=#d79b00;gradientColor=#ffa500;" vertex="1" parent="oBRwna4pSDsS-81vIEba-1">
          <mxGeometry x="420" y="600" width="20" height="20" as="geometry" />
        </mxCell>
        <mxCell id="hpWwAnvsBjFf9aS-UhIp-28" value="" style="ellipse;whiteSpace=wrap;html=1;aspect=fixed;fillColor=#ffcd28;sketch=1;rounded=1;strokeColor=#d79b00;gradientColor=#ffa500;" vertex="1" parent="oBRwna4pSDsS-81vIEba-1">
          <mxGeometry x="460" y="600" width="20" height="20" as="geometry" />
        </mxCell>
        <mxCell id="hpWwAnvsBjFf9aS-UhIp-29" value="" style="ellipse;whiteSpace=wrap;html=1;aspect=fixed;fillColor=#ffcd28;sketch=1;rounded=1;strokeColor=#d79b00;gradientColor=#ffa500;" vertex="1" parent="oBRwna4pSDsS-81vIEba-1">
          <mxGeometry x="500" y="600" width="20" height="20" as="geometry" />
        </mxCell>
        <mxCell id="hpWwAnvsBjFf9aS-UhIp-30" value="" style="ellipse;whiteSpace=wrap;html=1;aspect=fixed;fillColor=#ffcd28;sketch=1;rounded=1;strokeColor=#d79b00;gradientColor=#ffa500;" vertex="1" parent="oBRwna4pSDsS-81vIEba-1">
          <mxGeometry x="540" y="600" width="20" height="20" as="geometry" />
        </mxCell>
        <mxCell id="hpWwAnvsBjFf9aS-UhIp-33" value="" style="ellipse;whiteSpace=wrap;html=1;aspect=fixed;fillColor=#ffcd28;sketch=1;rounded=1;strokeColor=#d79b00;gradientColor=#ffa500;" vertex="1" parent="oBRwna4pSDsS-81vIEba-1">
          <mxGeometry x="586" y="600" width="20" height="20" as="geometry" />
        </mxCell>
        <mxCell id="hpWwAnvsBjFf9aS-UhIp-34" value="" style="ellipse;whiteSpace=wrap;html=1;aspect=fixed;fillColor=#ffcd28;sketch=1;rounded=1;strokeColor=#d79b00;gradientColor=#ffa500;" vertex="1" parent="oBRwna4pSDsS-81vIEba-1">
          <mxGeometry x="630" y="600" width="20" height="20" as="geometry" />
        </mxCell>
        <mxCell id="hpWwAnvsBjFf9aS-UhIp-35" value="" style="ellipse;whiteSpace=wrap;html=1;aspect=fixed;fillColor=#ffcd28;sketch=1;rounded=1;strokeColor=#d79b00;gradientColor=#ffa500;" vertex="1" parent="oBRwna4pSDsS-81vIEba-1">
          <mxGeometry x="670" y="600" width="20" height="20" as="geometry" />
        </mxCell>
        <mxCell id="hpWwAnvsBjFf9aS-UhIp-36" value="" style="ellipse;whiteSpace=wrap;html=1;aspect=fixed;fillColor=#ffcd28;sketch=1;rounded=1;strokeColor=#d79b00;gradientColor=#ffa500;" vertex="1" parent="oBRwna4pSDsS-81vIEba-1">
          <mxGeometry x="710" y="600" width="20" height="20" as="geometry" />
        </mxCell>
        <mxCell id="hpWwAnvsBjFf9aS-UhIp-37" value="" style="ellipse;whiteSpace=wrap;html=1;aspect=fixed;fillColor=#ffcd28;sketch=1;rounded=1;strokeColor=#d79b00;gradientColor=#ffa500;" vertex="1" parent="oBRwna4pSDsS-81vIEba-1">
          <mxGeometry x="750" y="600" width="20" height="20" as="geometry" />
        </mxCell>
        <mxCell id="hpWwAnvsBjFf9aS-UhIp-38" value="" style="ellipse;whiteSpace=wrap;html=1;aspect=fixed;fillColor=#ffcd28;sketch=1;rounded=1;strokeColor=#d79b00;gradientColor=#ffa500;" vertex="1" parent="oBRwna4pSDsS-81vIEba-1">
          <mxGeometry x="790" y="600" width="20" height="20" as="geometry" />
        </mxCell>
        <mxCell id="hpWwAnvsBjFf9aS-UhIp-41" value="" style="ellipse;whiteSpace=wrap;html=1;aspect=fixed;fillColor=#ffcd28;sketch=1;rounded=1;strokeColor=#d79b00;gradientColor=#ffa500;" vertex="1" parent="oBRwna4pSDsS-81vIEba-1">
          <mxGeometry x="836" y="600" width="20" height="20" as="geometry" />
        </mxCell>
        <mxCell id="hpWwAnvsBjFf9aS-UhIp-42" value="" style="ellipse;whiteSpace=wrap;html=1;aspect=fixed;fillColor=#ffcd28;sketch=1;rounded=1;strokeColor=#d79b00;gradientColor=#ffa500;" vertex="1" parent="oBRwna4pSDsS-81vIEba-1">
          <mxGeometry x="880" y="600" width="20" height="20" as="geometry" />
        </mxCell>
        <mxCell id="hpWwAnvsBjFf9aS-UhIp-43" value="" style="ellipse;whiteSpace=wrap;html=1;aspect=fixed;fillColor=#ffcd28;sketch=1;rounded=1;strokeColor=#d79b00;gradientColor=#ffa500;" vertex="1" parent="oBRwna4pSDsS-81vIEba-1">
          <mxGeometry x="920" y="600" width="20" height="20" as="geometry" />
        </mxCell>
        <mxCell id="hpWwAnvsBjFf9aS-UhIp-44" value="" style="ellipse;whiteSpace=wrap;html=1;aspect=fixed;fillColor=#ffcd28;sketch=1;rounded=1;strokeColor=#d79b00;gradientColor=#ffa500;" vertex="1" parent="oBRwna4pSDsS-81vIEba-1">
          <mxGeometry x="960" y="600" width="20" height="20" as="geometry" />
        </mxCell>
        <mxCell id="hpWwAnvsBjFf9aS-UhIp-45" value="" style="ellipse;whiteSpace=wrap;html=1;aspect=fixed;fillColor=#ffcd28;sketch=1;rounded=1;strokeColor=#d79b00;gradientColor=#ffa500;" vertex="1" parent="oBRwna4pSDsS-81vIEba-1">
          <mxGeometry x="1000" y="600" width="20" height="20" as="geometry" />
        </mxCell>
        <mxCell id="hpWwAnvsBjFf9aS-UhIp-46" value="" style="ellipse;whiteSpace=wrap;html=1;aspect=fixed;fillColor=#ffcd28;sketch=1;rounded=1;strokeColor=#d79b00;gradientColor=#ffa500;" vertex="1" parent="oBRwna4pSDsS-81vIEba-1">
          <mxGeometry x="1040" y="600" width="20" height="20" as="geometry" />
        </mxCell>
        <mxCell id="hpWwAnvsBjFf9aS-UhIp-49" value="" style="ellipse;whiteSpace=wrap;html=1;aspect=fixed;fillColor=#ffcd28;sketch=1;rounded=1;strokeColor=#d79b00;gradientColor=#ffa500;" vertex="1" parent="oBRwna4pSDsS-81vIEba-1">
          <mxGeometry x="1086" y="600" width="20" height="20" as="geometry" />
        </mxCell>
        <mxCell id="hpWwAnvsBjFf9aS-UhIp-50" value="" style="ellipse;whiteSpace=wrap;html=1;aspect=fixed;fillColor=#ffcd28;sketch=1;rounded=1;strokeColor=#d79b00;gradientColor=#ffa500;" vertex="1" parent="oBRwna4pSDsS-81vIEba-1">
          <mxGeometry x="1130" y="600" width="20" height="20" as="geometry" />
        </mxCell>
        <mxCell id="hpWwAnvsBjFf9aS-UhIp-348" style="edgeStyle=none;orthogonalLoop=1;jettySize=auto;html=1;exitX=1;exitY=0.5;exitDx=0;exitDy=0;entryX=0;entryY=0.5;entryDx=0;entryDy=0;fontColor=#5C5C5C;strokeWidth=2;sketch=1;fillColor=#f5f5f5;strokeColor=#666666;gradientColor=#b3b3b3;" edge="1" parent="oBRwna4pSDsS-81vIEba-1" source="hpWwAnvsBjFf9aS-UhIp-51" target="hpWwAnvsBjFf9aS-UhIp-52">
          <mxGeometry relative="1" as="geometry" />
        </mxCell>
        <mxCell id="hpWwAnvsBjFf9aS-UhIp-51" value="" style="ellipse;whiteSpace=wrap;html=1;aspect=fixed;fillColor=#ffcd28;sketch=1;rounded=1;strokeColor=#d79b00;gradientColor=#ffa500;" vertex="1" parent="oBRwna4pSDsS-81vIEba-1">
          <mxGeometry x="1170" y="600" width="20" height="20" as="geometry" />
        </mxCell>
        <mxCell id="hpWwAnvsBjFf9aS-UhIp-52" value="" style="ellipse;whiteSpace=wrap;html=1;aspect=fixed;fillColor=#ffcd28;sketch=1;rounded=1;strokeColor=#d79b00;gradientColor=#ffa500;" vertex="1" parent="oBRwna4pSDsS-81vIEba-1">
          <mxGeometry x="1210" y="600" width="20" height="20" as="geometry" />
        </mxCell>
        <mxCell id="hpWwAnvsBjFf9aS-UhIp-53" value="" style="ellipse;whiteSpace=wrap;html=1;aspect=fixed;fillColor=#ffcd28;sketch=1;rounded=1;strokeColor=#d79b00;gradientColor=#ffa500;" vertex="1" parent="oBRwna4pSDsS-81vIEba-1">
          <mxGeometry x="1250" y="600" width="20" height="20" as="geometry" />
        </mxCell>
        <mxCell id="hpWwAnvsBjFf9aS-UhIp-54" value="" style="ellipse;whiteSpace=wrap;html=1;aspect=fixed;fillColor=#ffcd28;sketch=1;rounded=1;strokeColor=#d79b00;gradientColor=#ffa500;" vertex="1" parent="oBRwna4pSDsS-81vIEba-1">
          <mxGeometry x="1290" y="600" width="20" height="20" as="geometry" />
        </mxCell>
        <mxCell id="hpWwAnvsBjFf9aS-UhIp-57" value="" style="ellipse;whiteSpace=wrap;html=1;aspect=fixed;fillColor=#ffcd28;sketch=1;rounded=1;strokeColor=#d79b00;gradientColor=#ffa500;" vertex="1" parent="oBRwna4pSDsS-81vIEba-1">
          <mxGeometry x="1336" y="600" width="20" height="20" as="geometry" />
        </mxCell>
        <mxCell id="hpWwAnvsBjFf9aS-UhIp-58" value="" style="ellipse;whiteSpace=wrap;html=1;aspect=fixed;fillColor=#ffcd28;sketch=1;rounded=1;strokeColor=#d79b00;gradientColor=#ffa500;" vertex="1" parent="oBRwna4pSDsS-81vIEba-1">
          <mxGeometry x="1380" y="600" width="20" height="20" as="geometry" />
        </mxCell>
        <mxCell id="hpWwAnvsBjFf9aS-UhIp-59" value="" style="ellipse;whiteSpace=wrap;html=1;aspect=fixed;fillColor=#ffcd28;sketch=1;rounded=1;strokeColor=#d79b00;gradientColor=#ffa500;" vertex="1" parent="oBRwna4pSDsS-81vIEba-1">
          <mxGeometry x="1420" y="600" width="20" height="20" as="geometry" />
        </mxCell>
        <mxCell id="hpWwAnvsBjFf9aS-UhIp-60" value="" style="ellipse;whiteSpace=wrap;html=1;aspect=fixed;fillColor=#ffcd28;sketch=1;rounded=1;strokeColor=#d79b00;gradientColor=#ffa500;" vertex="1" parent="oBRwna4pSDsS-81vIEba-1">
          <mxGeometry x="1460" y="600" width="20" height="20" as="geometry" />
        </mxCell>
        <mxCell id="hpWwAnvsBjFf9aS-UhIp-61" value="" style="ellipse;whiteSpace=wrap;html=1;aspect=fixed;fillColor=#ffcd28;sketch=1;rounded=1;strokeColor=#d79b00;gradientColor=#ffa500;" vertex="1" parent="oBRwna4pSDsS-81vIEba-1">
          <mxGeometry x="1500" y="600" width="20" height="20" as="geometry" />
        </mxCell>
        <mxCell id="hpWwAnvsBjFf9aS-UhIp-67" value="" style="ellipse;whiteSpace=wrap;html=1;aspect=fixed;fillColor=#ffcd28;sketch=1;rounded=1;strokeColor=#d79b00;gradientColor=#ffa500;" vertex="1" parent="oBRwna4pSDsS-81vIEba-1">
          <mxGeometry x="-330" y="490" width="20" height="20" as="geometry" />
        </mxCell>
        <mxCell id="hpWwAnvsBjFf9aS-UhIp-69" value="" style="ellipse;whiteSpace=wrap;html=1;aspect=fixed;fillColor=#ffcd28;sketch=1;rounded=1;strokeColor=#d79b00;gradientColor=#ffa500;" vertex="1" parent="oBRwna4pSDsS-81vIEba-1">
          <mxGeometry x="-250" y="490" width="20" height="20" as="geometry" />
        </mxCell>
        <mxCell id="hpWwAnvsBjFf9aS-UhIp-73" value="" style="ellipse;whiteSpace=wrap;html=1;aspect=fixed;fillColor=#ffcd28;sketch=1;rounded=1;strokeColor=#d79b00;gradientColor=#ffa500;" vertex="1" parent="oBRwna4pSDsS-81vIEba-1">
          <mxGeometry x="-164" y="490" width="20" height="20" as="geometry" />
        </mxCell>
        <mxCell id="hpWwAnvsBjFf9aS-UhIp-75" value="" style="ellipse;whiteSpace=wrap;html=1;aspect=fixed;fillColor=#ffcd28;sketch=1;rounded=1;strokeColor=#d79b00;gradientColor=#ffa500;" vertex="1" parent="oBRwna4pSDsS-81vIEba-1">
          <mxGeometry x="-80" y="490" width="20" height="20" as="geometry" />
        </mxCell>
        <mxCell id="hpWwAnvsBjFf9aS-UhIp-77" value="" style="ellipse;whiteSpace=wrap;html=1;aspect=fixed;fillColor=#ffcd28;sketch=1;rounded=1;strokeColor=#d79b00;gradientColor=#ffa500;" vertex="1" parent="oBRwna4pSDsS-81vIEba-1">
          <mxGeometry y="490" width="20" height="20" as="geometry" />
        </mxCell>
        <mxCell id="hpWwAnvsBjFf9aS-UhIp-81" value="" style="ellipse;whiteSpace=wrap;html=1;aspect=fixed;fillColor=#ffcd28;sketch=1;rounded=1;strokeColor=#d79b00;gradientColor=#ffa500;" vertex="1" parent="oBRwna4pSDsS-81vIEba-1">
          <mxGeometry x="86" y="490" width="20" height="20" as="geometry" />
        </mxCell>
        <mxCell id="hpWwAnvsBjFf9aS-UhIp-83" value="" style="ellipse;whiteSpace=wrap;html=1;aspect=fixed;fillColor=#ffcd28;sketch=1;rounded=1;strokeColor=#d79b00;gradientColor=#ffa500;" vertex="1" parent="oBRwna4pSDsS-81vIEba-1">
          <mxGeometry x="170" y="490" width="20" height="20" as="geometry" />
        </mxCell>
        <mxCell id="hpWwAnvsBjFf9aS-UhIp-85" value="" style="ellipse;whiteSpace=wrap;html=1;aspect=fixed;fillColor=#ffcd28;sketch=1;rounded=1;strokeColor=#d79b00;gradientColor=#ffa500;" vertex="1" parent="oBRwna4pSDsS-81vIEba-1">
          <mxGeometry x="250" y="490" width="20" height="20" as="geometry" />
        </mxCell>
        <mxCell id="hpWwAnvsBjFf9aS-UhIp-89" value="" style="ellipse;whiteSpace=wrap;html=1;aspect=fixed;fillColor=#ffcd28;sketch=1;rounded=1;strokeColor=#d79b00;gradientColor=#ffa500;" vertex="1" parent="oBRwna4pSDsS-81vIEba-1">
          <mxGeometry x="336" y="490" width="20" height="20" as="geometry" />
        </mxCell>
        <mxCell id="hpWwAnvsBjFf9aS-UhIp-91" value="" style="ellipse;whiteSpace=wrap;html=1;aspect=fixed;fillColor=#ffcd28;sketch=1;rounded=1;strokeColor=#d79b00;gradientColor=#ffa500;" vertex="1" parent="oBRwna4pSDsS-81vIEba-1">
          <mxGeometry x="420" y="490" width="20" height="20" as="geometry" />
        </mxCell>
        <mxCell id="hpWwAnvsBjFf9aS-UhIp-93" value="" style="ellipse;whiteSpace=wrap;html=1;aspect=fixed;fillColor=#ffcd28;sketch=1;rounded=1;strokeColor=#d79b00;gradientColor=#ffa500;" vertex="1" parent="oBRwna4pSDsS-81vIEba-1">
          <mxGeometry x="500" y="490" width="20" height="20" as="geometry" />
        </mxCell>
        <mxCell id="hpWwAnvsBjFf9aS-UhIp-97" value="" style="ellipse;whiteSpace=wrap;html=1;aspect=fixed;fillColor=#ffcd28;sketch=1;rounded=1;strokeColor=#d79b00;gradientColor=#ffa500;" vertex="1" parent="oBRwna4pSDsS-81vIEba-1">
          <mxGeometry x="586" y="490" width="20" height="20" as="geometry" />
        </mxCell>
        <mxCell id="hpWwAnvsBjFf9aS-UhIp-99" value="" style="ellipse;whiteSpace=wrap;html=1;aspect=fixed;fillColor=#ffcd28;sketch=1;rounded=1;strokeColor=#d79b00;gradientColor=#ffa500;" vertex="1" parent="oBRwna4pSDsS-81vIEba-1">
          <mxGeometry x="670" y="490" width="20" height="20" as="geometry" />
        </mxCell>
        <mxCell id="hpWwAnvsBjFf9aS-UhIp-101" value="" style="ellipse;whiteSpace=wrap;html=1;aspect=fixed;fillColor=#ffcd28;sketch=1;rounded=1;strokeColor=#d79b00;gradientColor=#ffa500;" vertex="1" parent="oBRwna4pSDsS-81vIEba-1">
          <mxGeometry x="750" y="490" width="20" height="20" as="geometry" />
        </mxCell>
        <mxCell id="hpWwAnvsBjFf9aS-UhIp-105" value="" style="ellipse;whiteSpace=wrap;html=1;aspect=fixed;fillColor=#ffcd28;sketch=1;rounded=1;strokeColor=#d79b00;gradientColor=#ffa500;" vertex="1" parent="oBRwna4pSDsS-81vIEba-1">
          <mxGeometry x="836" y="490" width="20" height="20" as="geometry" />
        </mxCell>
        <mxCell id="hpWwAnvsBjFf9aS-UhIp-107" value="" style="ellipse;whiteSpace=wrap;html=1;aspect=fixed;fillColor=#ffcd28;sketch=1;rounded=1;strokeColor=#d79b00;gradientColor=#ffa500;" vertex="1" parent="oBRwna4pSDsS-81vIEba-1">
          <mxGeometry x="920" y="490" width="20" height="20" as="geometry" />
        </mxCell>
        <mxCell id="hpWwAnvsBjFf9aS-UhIp-109" value="" style="ellipse;whiteSpace=wrap;html=1;aspect=fixed;fillColor=#ffcd28;sketch=1;rounded=1;strokeColor=#d79b00;gradientColor=#ffa500;" vertex="1" parent="oBRwna4pSDsS-81vIEba-1">
          <mxGeometry x="1000" y="490" width="20" height="20" as="geometry" />
        </mxCell>
        <mxCell id="hpWwAnvsBjFf9aS-UhIp-113" value="" style="ellipse;whiteSpace=wrap;html=1;aspect=fixed;fillColor=#ffcd28;sketch=1;rounded=1;strokeColor=#d79b00;gradientColor=#ffa500;" vertex="1" parent="oBRwna4pSDsS-81vIEba-1">
          <mxGeometry x="1086" y="490" width="20" height="20" as="geometry" />
        </mxCell>
        <mxCell id="hpWwAnvsBjFf9aS-UhIp-347" style="edgeStyle=none;orthogonalLoop=1;jettySize=auto;html=1;exitX=0.5;exitY=1;exitDx=0;exitDy=0;entryX=0.5;entryY=0;entryDx=0;entryDy=0;fontColor=#5C5C5C;strokeWidth=2;sketch=1;fillColor=#f5f5f5;strokeColor=#666666;gradientColor=#b3b3b3;" edge="1" parent="oBRwna4pSDsS-81vIEba-1" source="hpWwAnvsBjFf9aS-UhIp-115" target="hpWwAnvsBjFf9aS-UhIp-51">
          <mxGeometry relative="1" as="geometry" />
        </mxCell>
        <mxCell id="hpWwAnvsBjFf9aS-UhIp-115" value="" style="ellipse;whiteSpace=wrap;html=1;aspect=fixed;fillColor=#ffcd28;sketch=1;rounded=1;strokeColor=#d79b00;gradientColor=#ffa500;" vertex="1" parent="oBRwna4pSDsS-81vIEba-1">
          <mxGeometry x="1170" y="490" width="20" height="20" as="geometry" />
        </mxCell>
        <mxCell id="hpWwAnvsBjFf9aS-UhIp-117" value="" style="ellipse;whiteSpace=wrap;html=1;aspect=fixed;fillColor=#ffcd28;sketch=1;rounded=1;strokeColor=#d79b00;gradientColor=#ffa500;" vertex="1" parent="oBRwna4pSDsS-81vIEba-1">
          <mxGeometry x="1250" y="490" width="20" height="20" as="geometry" />
        </mxCell>
        <mxCell id="hpWwAnvsBjFf9aS-UhIp-121" value="" style="ellipse;whiteSpace=wrap;html=1;aspect=fixed;fillColor=#ffcd28;sketch=1;rounded=1;strokeColor=#d79b00;gradientColor=#ffa500;" vertex="1" parent="oBRwna4pSDsS-81vIEba-1">
          <mxGeometry x="1336" y="490" width="20" height="20" as="geometry" />
        </mxCell>
        <mxCell id="hpWwAnvsBjFf9aS-UhIp-123" value="" style="ellipse;whiteSpace=wrap;html=1;aspect=fixed;fillColor=#ffcd28;sketch=1;rounded=1;strokeColor=#d79b00;gradientColor=#ffa500;" vertex="1" parent="oBRwna4pSDsS-81vIEba-1">
          <mxGeometry x="1420" y="490" width="20" height="20" as="geometry" />
        </mxCell>
        <mxCell id="hpWwAnvsBjFf9aS-UhIp-125" value="" style="ellipse;whiteSpace=wrap;html=1;aspect=fixed;fillColor=#ffcd28;sketch=1;rounded=1;strokeColor=#d79b00;gradientColor=#ffa500;" vertex="1" parent="oBRwna4pSDsS-81vIEba-1">
          <mxGeometry x="1500" y="490" width="20" height="20" as="geometry" />
        </mxCell>
        <mxCell id="hpWwAnvsBjFf9aS-UhIp-131" value="" style="ellipse;whiteSpace=wrap;html=1;aspect=fixed;fillColor=#ffcd28;sketch=1;rounded=1;strokeColor=#d79b00;gradientColor=#ffa500;" vertex="1" parent="oBRwna4pSDsS-81vIEba-1">
          <mxGeometry x="-330" y="380" width="20" height="20" as="geometry" />
        </mxCell>
        <mxCell id="hpWwAnvsBjFf9aS-UhIp-137" value="" style="ellipse;whiteSpace=wrap;html=1;aspect=fixed;fillColor=#ffcd28;sketch=1;rounded=1;strokeColor=#d79b00;gradientColor=#ffa500;" vertex="1" parent="oBRwna4pSDsS-81vIEba-1">
          <mxGeometry x="-164" y="380" width="20" height="20" as="geometry" />
        </mxCell>
        <mxCell id="hpWwAnvsBjFf9aS-UhIp-141" value="" style="ellipse;whiteSpace=wrap;html=1;aspect=fixed;fillColor=#ffcd28;sketch=1;rounded=1;strokeColor=#d79b00;gradientColor=#ffa500;" vertex="1" parent="oBRwna4pSDsS-81vIEba-1">
          <mxGeometry y="380" width="20" height="20" as="geometry" />
        </mxCell>
        <mxCell id="hpWwAnvsBjFf9aS-UhIp-147" value="" style="ellipse;whiteSpace=wrap;html=1;aspect=fixed;fillColor=#ffcd28;sketch=1;rounded=1;strokeColor=#d79b00;gradientColor=#ffa500;" vertex="1" parent="oBRwna4pSDsS-81vIEba-1">
          <mxGeometry x="170" y="380" width="20" height="20" as="geometry" />
        </mxCell>
        <mxCell id="hpWwAnvsBjFf9aS-UhIp-153" value="" style="ellipse;whiteSpace=wrap;html=1;aspect=fixed;fillColor=#ffcd28;sketch=1;rounded=1;strokeColor=#d79b00;gradientColor=#ffa500;" vertex="1" parent="oBRwna4pSDsS-81vIEba-1">
          <mxGeometry x="336" y="380" width="20" height="20" as="geometry" />
        </mxCell>
        <mxCell id="hpWwAnvsBjFf9aS-UhIp-157" value="" style="ellipse;whiteSpace=wrap;html=1;aspect=fixed;fillColor=#ffcd28;sketch=1;rounded=1;strokeColor=#d79b00;gradientColor=#ffa500;" vertex="1" parent="oBRwna4pSDsS-81vIEba-1">
          <mxGeometry x="500" y="380" width="20" height="20" as="geometry" />
        </mxCell>
        <mxCell id="hpWwAnvsBjFf9aS-UhIp-163" value="" style="ellipse;whiteSpace=wrap;html=1;aspect=fixed;fillColor=#ffcd28;sketch=1;rounded=1;strokeColor=#d79b00;gradientColor=#ffa500;" vertex="1" parent="oBRwna4pSDsS-81vIEba-1">
          <mxGeometry x="670" y="380" width="20" height="20" as="geometry" />
        </mxCell>
        <mxCell id="hpWwAnvsBjFf9aS-UhIp-169" value="" style="ellipse;whiteSpace=wrap;html=1;aspect=fixed;fillColor=#ffcd28;sketch=1;rounded=1;strokeColor=#d79b00;gradientColor=#ffa500;" vertex="1" parent="oBRwna4pSDsS-81vIEba-1">
          <mxGeometry x="836" y="380" width="20" height="20" as="geometry" />
        </mxCell>
        <mxCell id="hpWwAnvsBjFf9aS-UhIp-345" style="edgeStyle=none;orthogonalLoop=1;jettySize=auto;html=1;exitX=1;exitY=0.5;exitDx=0;exitDy=0;entryX=0;entryY=0.5;entryDx=0;entryDy=0;fontColor=#5C5C5C;strokeWidth=2;sketch=1;fillColor=#f5f5f5;strokeColor=#666666;gradientColor=#b3b3b3;" edge="1" parent="oBRwna4pSDsS-81vIEba-1" source="hpWwAnvsBjFf9aS-UhIp-173" target="hpWwAnvsBjFf9aS-UhIp-179">
          <mxGeometry relative="1" as="geometry" />
        </mxCell>
        <mxCell id="hpWwAnvsBjFf9aS-UhIp-173" value="" style="ellipse;whiteSpace=wrap;html=1;aspect=fixed;fillColor=#ffcd28;sketch=1;rounded=1;strokeColor=#d79b00;gradientColor=#ffa500;" vertex="1" parent="oBRwna4pSDsS-81vIEba-1">
          <mxGeometry x="1000" y="380" width="20" height="20" as="geometry" />
        </mxCell>
        <mxCell id="hpWwAnvsBjFf9aS-UhIp-346" style="edgeStyle=none;orthogonalLoop=1;jettySize=auto;html=1;exitX=0.5;exitY=1;exitDx=0;exitDy=0;entryX=0.5;entryY=0;entryDx=0;entryDy=0;fontColor=#5C5C5C;strokeWidth=2;sketch=1;fillColor=#f5f5f5;strokeColor=#666666;gradientColor=#b3b3b3;" edge="1" parent="oBRwna4pSDsS-81vIEba-1" source="hpWwAnvsBjFf9aS-UhIp-179" target="hpWwAnvsBjFf9aS-UhIp-115">
          <mxGeometry relative="1" as="geometry" />
        </mxCell>
        <mxCell id="hpWwAnvsBjFf9aS-UhIp-179" value="" style="ellipse;whiteSpace=wrap;html=1;aspect=fixed;fillColor=#ffcd28;sketch=1;rounded=1;strokeColor=#d79b00;gradientColor=#ffa500;" vertex="1" parent="oBRwna4pSDsS-81vIEba-1">
          <mxGeometry x="1170" y="380" width="20" height="20" as="geometry" />
        </mxCell>
        <mxCell id="hpWwAnvsBjFf9aS-UhIp-185" value="" style="ellipse;whiteSpace=wrap;html=1;aspect=fixed;fillColor=#ffcd28;sketch=1;rounded=1;strokeColor=#d79b00;gradientColor=#ffa500;" vertex="1" parent="oBRwna4pSDsS-81vIEba-1">
          <mxGeometry x="1336" y="380" width="20" height="20" as="geometry" />
        </mxCell>
        <mxCell id="hpWwAnvsBjFf9aS-UhIp-189" value="" style="ellipse;whiteSpace=wrap;html=1;aspect=fixed;fillColor=#ffcd28;sketch=1;rounded=1;strokeColor=#d79b00;gradientColor=#ffa500;" vertex="1" parent="oBRwna4pSDsS-81vIEba-1">
          <mxGeometry x="1500" y="380" width="20" height="20" as="geometry" />
        </mxCell>
        <mxCell id="hpWwAnvsBjFf9aS-UhIp-323" value="" style="ellipse;whiteSpace=wrap;html=1;aspect=fixed;fillColor=#ffcd28;sketch=1;rounded=1;strokeColor=#d79b00;gradientColor=#ffa500;" vertex="1" parent="oBRwna4pSDsS-81vIEba-1">
          <mxGeometry x="-330" y="280" width="20" height="20" as="geometry" />
        </mxCell>
        <mxCell id="hpWwAnvsBjFf9aS-UhIp-325" value="" style="ellipse;whiteSpace=wrap;html=1;aspect=fixed;fillColor=#ffcd28;sketch=1;rounded=1;strokeColor=#d79b00;gradientColor=#ffa500;" vertex="1" parent="oBRwna4pSDsS-81vIEba-1">
          <mxGeometry y="280" width="20" height="20" as="geometry" />
        </mxCell>
        <mxCell id="hpWwAnvsBjFf9aS-UhIp-327" value="" style="ellipse;whiteSpace=wrap;html=1;aspect=fixed;fillColor=#ffcd28;sketch=1;rounded=1;strokeColor=#d79b00;gradientColor=#ffa500;" vertex="1" parent="oBRwna4pSDsS-81vIEba-1">
          <mxGeometry x="336" y="280" width="20" height="20" as="geometry" />
        </mxCell>
        <mxCell id="hpWwAnvsBjFf9aS-UhIp-329" value="" style="ellipse;whiteSpace=wrap;html=1;aspect=fixed;fillColor=#ffcd28;sketch=1;rounded=1;strokeColor=#d79b00;gradientColor=#ffa500;" vertex="1" parent="oBRwna4pSDsS-81vIEba-1">
          <mxGeometry x="670" y="280" width="20" height="20" as="geometry" />
        </mxCell>
        <mxCell id="hpWwAnvsBjFf9aS-UhIp-344" style="edgeStyle=none;orthogonalLoop=1;jettySize=auto;html=1;exitX=0.5;exitY=1;exitDx=0;exitDy=0;entryX=0.5;entryY=0;entryDx=0;entryDy=0;fontColor=#5C5C5C;strokeWidth=2;sketch=1;fillColor=#f5f5f5;strokeColor=#666666;gradientColor=#b3b3b3;" edge="1" parent="oBRwna4pSDsS-81vIEba-1" source="hpWwAnvsBjFf9aS-UhIp-331" target="hpWwAnvsBjFf9aS-UhIp-173">
          <mxGeometry relative="1" as="geometry" />
        </mxCell>
        <mxCell id="hpWwAnvsBjFf9aS-UhIp-331" value="" style="ellipse;whiteSpace=wrap;html=1;aspect=fixed;fillColor=#ffcd28;sketch=1;rounded=1;strokeColor=#d79b00;gradientColor=#ffa500;" vertex="1" parent="oBRwna4pSDsS-81vIEba-1">
          <mxGeometry x="1000" y="280" width="20" height="20" as="geometry" />
        </mxCell>
        <mxCell id="hpWwAnvsBjFf9aS-UhIp-333" value="" style="ellipse;whiteSpace=wrap;html=1;aspect=fixed;fillColor=#ffcd28;sketch=1;rounded=1;strokeColor=#d79b00;gradientColor=#ffa500;" vertex="1" parent="oBRwna4pSDsS-81vIEba-1">
          <mxGeometry x="1336" y="280" width="20" height="20" as="geometry" />
        </mxCell>
        <mxCell id="hpWwAnvsBjFf9aS-UhIp-341" style="orthogonalLoop=1;jettySize=auto;html=1;exitX=1;exitY=0.5;exitDx=0;exitDy=0;entryX=0;entryY=0.5;entryDx=0;entryDy=0;fontColor=#5C5C5C;strokeWidth=2;sketch=1;fillColor=#f5f5f5;strokeColor=#666666;gradientColor=#b3b3b3;" edge="1" parent="oBRwna4pSDsS-81vIEba-1" source="hpWwAnvsBjFf9aS-UhIp-335" target="hpWwAnvsBjFf9aS-UhIp-337">
          <mxGeometry relative="1" as="geometry" />
        </mxCell>
        <mxCell id="hpWwAnvsBjFf9aS-UhIp-335" value="" style="ellipse;whiteSpace=wrap;html=1;aspect=fixed;fillColor=#ffcd28;sketch=1;rounded=1;strokeColor=#d79b00;gradientColor=#ffa500;" vertex="1" parent="oBRwna4pSDsS-81vIEba-1">
          <mxGeometry x="-330" y="180" width="20" height="20" as="geometry" />
        </mxCell>
        <mxCell id="hpWwAnvsBjFf9aS-UhIp-342" style="edgeStyle=none;orthogonalLoop=1;jettySize=auto;html=1;exitX=1;exitY=0.5;exitDx=0;exitDy=0;fontColor=#5C5C5C;strokeWidth=2;sketch=1;fillColor=#f5f5f5;strokeColor=#666666;gradientColor=#b3b3b3;" edge="1" parent="oBRwna4pSDsS-81vIEba-1" source="hpWwAnvsBjFf9aS-UhIp-337" target="hpWwAnvsBjFf9aS-UhIp-339">
          <mxGeometry relative="1" as="geometry" />
        </mxCell>
        <mxCell id="hpWwAnvsBjFf9aS-UhIp-337" value="" style="ellipse;whiteSpace=wrap;html=1;aspect=fixed;fillColor=#ffcd28;sketch=1;rounded=1;strokeColor=#d79b00;gradientColor=#ffa500;" vertex="1" parent="oBRwna4pSDsS-81vIEba-1">
          <mxGeometry x="336" y="180" width="20" height="20" as="geometry" />
        </mxCell>
        <mxCell id="hpWwAnvsBjFf9aS-UhIp-343" style="edgeStyle=none;orthogonalLoop=1;jettySize=auto;html=1;exitX=0.5;exitY=1;exitDx=0;exitDy=0;entryX=0.5;entryY=0;entryDx=0;entryDy=0;fontColor=#5C5C5C;strokeWidth=2;sketch=1;fillColor=#f5f5f5;strokeColor=#666666;gradientColor=#b3b3b3;" edge="1" parent="oBRwna4pSDsS-81vIEba-1" source="hpWwAnvsBjFf9aS-UhIp-339" target="hpWwAnvsBjFf9aS-UhIp-331">
          <mxGeometry relative="1" as="geometry" />
        </mxCell>
        <mxCell id="hpWwAnvsBjFf9aS-UhIp-339" value="" style="ellipse;whiteSpace=wrap;html=1;aspect=fixed;fillColor=#ffcd28;sketch=1;rounded=1;strokeColor=#d79b00;gradientColor=#ffa500;" vertex="1" parent="oBRwna4pSDsS-81vIEba-1">
          <mxGeometry x="1000" y="180" width="20" height="20" as="geometry" />
        </mxCell>
      </root>
    </mxGraphModel>
  </diagram>
  <diagram name="resume" id="2wN9pP_hTyFWzXP6tVV8">
    <mxGraphModel dx="1426" dy="737" grid="1" gridSize="10" guides="1" tooltips="1" connect="1" arrows="1" fold="1" page="1" pageScale="1" pageWidth="1169" pageHeight="827" background="#FFFFFF" math="0" shadow="1">
      <root>
        <mxCell id="Bgc5ZdK7uHNgAoju37fR-0" />
        <mxCell id="Bgc5ZdK7uHNgAoju37fR-1" parent="Bgc5ZdK7uHNgAoju37fR-0" />
        <mxCell id="SvrcSOrk-D1RPuvsUYEu-0" value="" style="whiteSpace=wrap;html=1;fillColor=#EEEEEE;strokeColor=#FFFFFF;fontColor=#1A1A1A;rounded=1;" vertex="1" parent="Bgc5ZdK7uHNgAoju37fR-1">
          <mxGeometry x="540" y="270" width="320" height="260" as="geometry" />
        </mxCell>
        <mxCell id="SvrcSOrk-D1RPuvsUYEu-4" value="&lt;div style=&quot;font-size: 15px&quot;&gt;&lt;sup&gt;&lt;font style=&quot;font-size: 15px&quot; face=&quot;Comic Sans MS&quot;&gt;姓名：跳表&lt;/font&gt;&lt;/sup&gt;&lt;/div&gt;&lt;sup style=&quot;font-size: 15px&quot;&gt;&lt;font style=&quot;font-size: 15px&quot; face=&quot;Comic Sans MS&quot;&gt;英文名：Skip List&lt;/font&gt;&lt;/sup&gt;" style="text;html=1;strokeColor=none;fillColor=none;align=left;verticalAlign=middle;whiteSpace=wrap;fontColor=#1A1A1A;rounded=1;" vertex="1" parent="Bgc5ZdK7uHNgAoju37fR-1">
          <mxGeometry x="690" y="290" width="170" height="70" as="geometry" />
        </mxCell>
        <mxCell id="SvrcSOrk-D1RPuvsUYEu-6" value="&lt;div style=&quot;font-size: 15px&quot;&gt;&lt;sup&gt;&lt;font style=&quot;font-size: 15px&quot;&gt;父亲：有序列表&lt;/font&gt;&lt;/sup&gt;&lt;/div&gt;&lt;sup style=&quot;font-size: 15px&quot;&gt;&lt;font style=&quot;font-size: 15px&quot;&gt;&lt;br&gt;竞争对手：平衡树&lt;br&gt;&lt;br&gt;优点：原理简单、方便扩展、效率高&lt;br&gt;&lt;/font&gt;&lt;/sup&gt;" style="text;html=1;strokeColor=none;fillColor=none;align=left;verticalAlign=middle;whiteSpace=wrap;fontColor=#1A1A1A;rounded=1;" vertex="1" parent="Bgc5ZdK7uHNgAoju37fR-1">
          <mxGeometry x="570" y="390" width="250" height="81" as="geometry" />
        </mxCell>
        <mxCell id="SvrcSOrk-D1RPuvsUYEu-5" value="" style="endArrow=none;html=1;entryX=-0.012;entryY=0.886;entryDx=0;entryDy=0;entryPerimeter=0;strokeColor=#FFFFFF;fontColor=#FFFFFF;labelBackgroundColor=#182E3E;curved=1;" edge="1" parent="Bgc5ZdK7uHNgAoju37fR-1" target="SvrcSOrk-D1RPuvsUYEu-4">
          <mxGeometry width="50" height="50" relative="1" as="geometry">
            <mxPoint x="807" y="352" as="sourcePoint" />
            <mxPoint x="680" y="350" as="targetPoint" />
            <Array as="points" />
          </mxGeometry>
        </mxCell>
        <mxCell id="SvrcSOrk-D1RPuvsUYEu-7" value="" style="endArrow=none;html=1;strokeColor=#FFFFFF;fontColor=#FFFFFF;labelBackgroundColor=#182E3E;curved=1;" edge="1" parent="Bgc5ZdK7uHNgAoju37fR-1" target="SvrcSOrk-D1RPuvsUYEu-6">
          <mxGeometry width="50" height="50" relative="1" as="geometry">
            <mxPoint x="570" y="410" as="sourcePoint" />
            <mxPoint x="630" y="470" as="targetPoint" />
          </mxGeometry>
        </mxCell>
        <mxCell id="SvrcSOrk-D1RPuvsUYEu-8" value="" style="endArrow=none;html=1;strokeColor=#FFFFFF;fontColor=#FFFFFF;labelBackgroundColor=#182E3E;curved=1;" edge="1" parent="Bgc5ZdK7uHNgAoju37fR-1">
          <mxGeometry width="50" height="50" relative="1" as="geometry">
            <mxPoint x="820" y="490" as="sourcePoint" />
            <mxPoint x="570" y="490" as="targetPoint" />
            <Array as="points">
              <mxPoint x="590" y="490" />
            </Array>
          </mxGeometry>
        </mxCell>
        <mxCell id="SvrcSOrk-D1RPuvsUYEu-9" value="" style="endArrow=none;html=1;entryX=0;entryY=1;entryDx=0;entryDy=0;exitX=1;exitY=1;exitDx=0;exitDy=0;strokeColor=#FFFFFF;fontColor=#FFFFFF;labelBackgroundColor=#182E3E;curved=1;" edge="1" parent="Bgc5ZdK7uHNgAoju37fR-1">
          <mxGeometry width="50" height="50" relative="1" as="geometry">
            <mxPoint x="820" y="443.5" as="sourcePoint" />
            <mxPoint x="570" y="443.5" as="targetPoint" />
            <Array as="points" />
          </mxGeometry>
        </mxCell>
        <mxCell id="SvrcSOrk-D1RPuvsUYEu-10" value="" style="endArrow=none;html=1;entryX=0;entryY=1;entryDx=0;entryDy=0;exitX=1;exitY=1;exitDx=0;exitDy=0;strokeColor=#FFFFFF;fontColor=#FFFFFF;labelBackgroundColor=#182E3E;curved=1;" edge="1" parent="Bgc5ZdK7uHNgAoju37fR-1">
          <mxGeometry width="50" height="50" relative="1" as="geometry">
            <mxPoint x="825" y="399.5" as="sourcePoint" />
            <mxPoint x="575" y="399.5" as="targetPoint" />
            <Array as="points" />
          </mxGeometry>
        </mxCell>
        <mxCell id="SvrcSOrk-D1RPuvsUYEu-15" value="" style="shape=image;html=1;verticalAlign=top;verticalLabelPosition=bottom;imageAspect=0;aspect=fixed;image=https://cdn2.iconfinder.com/data/icons/virus-coronavirus-1/64/virus_man_mask_sick_protection_myself-128.png;fontColor=#1A1A1A;strokeColor=#FFFFFF;fillColor=#EEEEEE;labelBackgroundColor=#182E3E;rounded=1;" vertex="1" parent="Bgc5ZdK7uHNgAoju37fR-1">
          <mxGeometry x="580" y="281" width="79" height="79" as="geometry" />
        </mxCell>
      </root>
    </mxGraphModel>
  </diagram>
</mxfile>
